#!OML:ASF E:/inclinewalkrobotboard/Project1/Captureday1/Session1/subject1.ASF
:FULLY-SPECIFIED
:DEGREES
201
root 0 0 0 0.46042923900708077 -3.1674114965933144 1.2532023778655452
lowerback 11.5044279541167 0.6338599574649089 -0.5284676240561951
upperback -2.7781628144746113 0.801191179758003 0.017297497768051784
thorax -9.449527000395852 0.357656123931959 0.19615543293387339
lowerneck -9.801390413216875 0.26116054381535436 2.3750619325715414
upperneck 18.55256524596867 1.1301103633164917 -5.503295406513471
head 7.447443512213693 0.2723892553782292 -2.08974575321914
rclavicle 2.12467043680372E-16 -7.382203112462526E-16
rhumerus 2.5811009920163137 3.437949142284623 -59.56587188328792
rradius 56.195610451272344
rwrist 17.53943235184782
rhand -28.40019730457252 -27.5437771985394
rfingers 7.125019999999986
rthumb -1.7677138890050088 -57.78260550316144
lclavicle -8.352916919279111E-16 -1.7516274101575726E-16
lhumerus 3.0710469657150448 -9.599036879279168 59.038236267196055
lradius 55.77190697162706
lwrist -11.270890684752278
lhand -38.8603748303954 -35.986213576464365
lfingers 7.125019999999983
lthumb -11.801501260465363 -6.293673660290587
rfemur -25.260921020333072 1.7992026812765727 20.037802493971935
rtibia 47.69823415978382
rfoot -7.335904193047357 -9.853394638551455
rtoes -1.4313749498989337
lfemur -14.866580056334493 -0.32383138700966474 -17.190876144925962
ltibia 42.44731946624189
lfoot -6.065545846466978 -4.730671353880976
ltoes -6.222295581230833
202
root 0 0 0 0.46052220574129255 -3.1661488459712106 1.2554986426313184
lowerback 11.504594285511962 0.6330358315307731 -0.5307006402739806
upperback -2.7783828309316405 0.7997916072156235 0.01712929250628803
thorax -9.449906062106905 0.3570277241998354 0.1975179679005986
lowerneck -9.800680121527556 0.2615342776858549 2.375299322606831
upperneck 18.552747568393034 1.1307443885215522 -5.503905435917119
head 7.447415860019563 0.27267409219786676 -2.089908752785712
rclavicle 2.1261833250025736E-16 -7.38179628322876E-16
rhumerus 2.5813530525846105 3.43805682172572 -59.56560690646506
rradius 56.19587491076125
rwrist 17.539616461644492
rhand -28.400279333383146 -27.544244751969988
rfingers 7.125019999999986
rthumb -1.76781775534507 -57.783106162455894
lclavicle -8.353299801106444E-16 -1.7519554101237198E-16
lhumerus 3.0707761390017616 -9.598914802455633 59.03841552481249
lradius 55.77160932218342
lwrist -11.270812769050904
lhand -38.8602663128904 -35.98587871631633
lfingers 7.125019999999983
lthumb -11.801405447091 -6.2933740658363035
rfemur -25.30008246146158 1.78843056935199 20.018245966568138
rtibia 47.746366697883836
rfoot -7.316474870356947 -9.85784870500341
rtoes -1.4322825377622328
lfemur -14.876249070713289 -0.3133648507330866 -17.18098462492436
ltibia 42.52139261584999
lfoot -6.03961114665909 -4.75608433107255
ltoes -6.234606517090815
203
root 0 0 0 0.46070590681465395 -3.164095499695276 1.2590592235613556
lowerback 11.504797338635417 0.6317103692266963 -0.5342407176830876
upperback -2.778715306460283 0.7975595435913773 0.016896343439597672
thorax -9.450442729796581 0.35602633525580785 0.19968473802436504
lowerneck -9.799662380001923 0.2621334011469636 2.3756349199414033
upperneck 18.55284632076847 1.1317147396421907 -5.504762806597796
head 7.44731453923459 0.2731155400917804 -2.090124541108928
rclavicle 2.1265578556782293E-16 -7.381140489959102E-16
rhumerus 2.5816069338591916 3.4381729733741473 -59.56541637744503
rradius 56.196094304798784
rwrist 17.539781002085178
rhand -28.400358118084004 -27.54465526220633
rfingers 7.125019999999986
rthumb -1.7679036782638642 -57.783531593583724
lclavicle -8.353092730172327E-16 -1.7503848771723633E-16
lhumerus 3.0724453223816575 -9.5993728619539 59.037262043138554
lradius 55.7728964843631
lwrist -11.271608592274495
lhand -38.860825572053386 -35.988655955099155
lfingers 7.125019999999983
lthumb -11.80193320753734 -6.296248715121614
rfemur -25.347052989290084 1.7763429497778065 19.995043164935907
rtibia 47.795328612388474
rfoot -7.298921952293256 -9.86512849912305
rtoes -1.4378190646031812
lfemur -14.889612033139862 -0.30392038021584733 -17.170395857776654
ltibia 42.588184036145684
lfoot -6.016314007160848 -4.777619034057555
ltoes -6.24466297176343
204
root 0 0 0 0.4609319086507102 -3.1620416690633597 1.262538818336776
lowerback 11.50495687180248 0.630404176847962 -0.5377398377220793
upperback -2.7790469463841156 0.7953651162463033 0.016672132252815608
thorax -9.450951186253725 0.35504135169683837 0.20181289591096352
lowerneck -9.798678248657254 0.26274431232888285 2.3759617668919604
upperneck 18.5527853735898 1.1326834369373113 -5.505574095291706
head 7.447156421516743 0.2735594385005906 -2.090318905246557
rclavicle 2.1271702859377317E-16 -7.381042649797613E-16
rhumerus 2.5819572509241056 3.4383899504766173 -59.5651889450542
rradius 56.19640830520755
rwrist 17.539956357117006
rhand -28.40046653850413 -27.545199939072017
rfingers 7.125019999999986
rthumb -1.768012870126582 -57.78411203196185
lclavicle -8.353305846012781E-16 -1.7488539539667566E-16
lhumerus 3.075015107985781 -9.600103198558198 59.0354773668879
lradius 55.77490732164087
lwrist -11.272803286468816
lhand -38.861684883617784 -35.992894117455975
lfingers 7.125019999999983
lthumb -11.802753173054043 -6.300674957767171
rfemur -25.389619045315097 1.7657725295670381 19.974128211189658
rtibia 47.83587029458369
rfoot -7.285288815420936 -9.872500097202812
rtoes -1.444613893024536
lfemur -14.901594932297284 -0.29683415768068855 -17.161914188441
ltibia 42.63773836142516
lfoot -5.99975000258358 -4.792841990922886
ltoes -6.251936151694511
205
root 0 0 0 0.4608961807858085 -3.1653687161133366 1.2560764856131106
lowerback 11.504340653175587 0.6326249254815 -0.5316582637086086
upperback -2.7784712105328544 0.7991742781856879 0.017188875505378842
thorax -9.44985195875913 0.35675550569038667 0.1980611148403565
lowerneck -9.800731750366742 0.2618577746154438 2.375325828905097
upperneck 18.551640975193685 1.130982517701279 -5.503751879056193
head 7.44700530780475 0.2728204364285767 -2.0898079689584943
rclavicle 2.128287467671759E-16 -7.367736269531349E-16
rhumerus 2.5815257554433977 3.4383296577324423 -59.565680086837126
rradius 56.19581201808944
rwrist 17.53936113577611
rhand -28.400298325474473 -27.54413218202858
rfingers 7.125019999999986
rthumb -1.7676879567512387 -57.78259490532835
lclavicle -8.33699140688653E-16 -1.7333762516541063E-16
lhumerus 3.077501577111512 -9.600941929687236 59.03401402885566
lradius 55.77657575913622
lwrist -11.273976311967301
lhand -38.86245028605893 -35.99640905484615
lfingers 7.125019999999983
lthumb -11.803384960243454 -6.3049447890342805
rfemur -25.27758356253418 1.7966529922563805 20.03026960844677
rtibia 47.69833144610982
rfoot -7.339435781075759 -9.859501777797973
rtoes -1.4408510349441368
lfemur -14.876693651303906 -0.33119274210888927 -17.191612451074988
ltibia 42.396236352506456
lfoot -6.0838421410426164 -4.707822056066183
ltoes -6.211155748730338
206
root 0 0 0 0.46061086429368103 -3.1664970076395456 1.2548248031846951
lowerback 11.504507650744547 0.633279677654291 -0.5300659238656943
upperback -2.7783834177429596 0.8002154226544 0.017165305507482298
thorax -9.449839052073294 0.35721733894284047 0.19708710361109139
lowerneck -9.800810353691748 0.2615086267850142 2.37529592152325
upperneck 18.552469803828142 1.1306491562594707 -5.503777483621566
head 7.447320050409656 0.27263457573604266 -2.0898703301539796
rclavicle 2.1252403135844364E-16 -7.381745344567244E-16
rhumerus 2.581672022925847 3.438365621877354 -59.56556809512096
rradius 56.19612785318317
rwrist 17.53964059251755
rhand -28.400377310620588 -27.54461446271573
rfingers 7.125019999999986
rthumb -1.7678726671051974 -57.78346598496582
lclavicle -8.352883148230349E-16 -1.749700647608349E-16
lhumerus 3.073680646309061 -9.599808819252575 59.03642335820725
lradius 55.773984140507764
lwrist -11.272086775703595
lhand -38.86125774388973 -35.99049447710342
lfingers 7.125019999999983
lthumb -11.80234074280179 -6.298133112798325
rfemur -25.28415408410803 1.7938898150218532 20.02653114442831
rtibia 47.71577233669795
rfoot -7.3312441086646185 -9.858370364086309
rtoes -1.4372284812864038
lfemur -14.872791427655535 -0.32229448008911676 -17.188031572812108
ltibia 42.45703490307884
lfoot -6.0636348123114105 -4.73224864955762
ltoes -6.223384402248168
